<svg xmlns="http://www.w3.org/2000/svg" viewBox="0 0 478.856 478.856"  xmlns:v="https://vecta.io/nano"><path d="M406.872 160.017H6.856A6.85 6.85 0 0 0 0 166.857v192.016a6.85 6.85 0 0 0 6.84 6.856h272.016a6.86 6.86 0 0 0 6.856-6.856 6.86 6.86 0 0 0-6.856-6.856H13.712V173.729H400v17.144a6.85 6.85 0 0 0 6.84 6.856c3.798.004 6.868-3.058 6.872-6.84v-24.016a6.85 6.85 0 0 0-6.84-6.856zm-46.512-31.832l-320-72c-1.776-.397-3.637-.075-5.176.896-1.537.979-2.624 2.526-3.024 4.304l-16 72a6.86 6.86 0 0 0 5.208 8.184 6.86 6.86 0 0 0 8.184-5.208l14.504-65.288 313.296 70.488c.496.115 1.003.172 1.512.168a6.86 6.86 0 0 0 1.496-13.544zm-38.856-39.672l-192-80a6.88 6.88 0 0 0-8.8 3.272l-16 32a6.88 6.88 0 1 0 12.104 6.544l.2-.401v.016l13.128-26.272L316.208 101.2c3.504 1.462 7.53-.192 8.992-3.696s-.192-7.528-3.696-8.991zm4.848 103.504h-63.496a6.86 6.86 0 0 0-6.856 6.856 6.86 6.86 0 0 0 6.856 6.856h63.496a6.86 6.86 0 0 0 6.856-6.856 6.86 6.86 0 0 0-6.856-6.856zm-127.496.456c-38.881 0-70.4 31.519-70.4 70.4.04 38.864 31.536 70.36 70.4 70.4 38.881 0 70.4-31.519 70.4-70.4s-31.519-70.4-70.4-70.4zm0 128c-31.812 0-57.6-25.788-57.6-57.6.035-31.797 25.803-57.565 57.6-57.6 31.812 0 57.6 25.788 57.6 57.6s-25.788 57.6-57.6 57.6zm192-105.6c-42.4 0-88 10.016-88 32v192c0 21.984 45.6 32 88 32s88-10.016 88-32v-192c0-21.984-45.6-32-88-32zm72 223.88c-1.208 4.44-25.2 16.12-72 16.12s-70.792-11.68-72-16v-12.576c17.024 8.576 45.144 12.576 72 12.576s54.984-4.04 72-12.584v12.464zm0-32c-1.208 4.44-25.2 16.12-72 16.12s-70.792-11.68-72-16v-12.576c17.024 8.576 45.144 12.576 72 12.576s54.984-4.04 72-12.584v12.464zm0-32c-1.208 4.44-25.2 16.12-72 16.12s-70.792-11.68-72-16v-12.576c17.024 8.576 45.144 12.576 72 12.576s54.984-4.04 72-12.584v12.464zm0-32c-1.208 4.44-25.2 16.12-72 16.12s-70.792-11.68-72-16v-12.576c17.024 8.576 45.144 12.576 72 12.576s54.984-4.04 72-12.584v12.464zm0-32c-1.208 4.44-25.2 16.12-72 16.12s-70.792-11.68-72-16v-12.576c17.024 8.536 45.144 12.576 72 12.576s54.984-4.04 72-12.584v12.464zm0-32c-1.208 4.44-25.2 16.12-72 16.12s-70.792-11.68-72-16v-12.576c17.024 8.536 45.144 12.576 72 12.576s54.984-4.04 72-12.584v12.464zm-72-15.88c-46.728 0-70.712-11.648-72-15.856v-.048c1.288-4.456 25.272-16.096 72-16.096 46.4 0 70.4 11.472 72 16-1.6 4.528-25.6 16-72 16zm-256 57.136H74.384l-28.672-31.36v-52l31.664-30.92h57.48a6.86 6.86 0 0 0 6.856-6.856 6.86 6.86 0 0 0-6.856-6.856H74.592c-1.792-.004-3.515.694-4.8 1.944l-35.736 34.856c-1.335 1.56-2.067 3.547-2.064 5.6v56.896a6.86 6.86 0 0 0 1.792 4.624l32.504 35.552c1.299 1.422 3.137 2.233 5.064 2.232h63.504a6.86 6.86 0 0 0 6.856-6.856 6.86 6.86 0 0 0-6.856-6.856zm68-65.136h-8c-2.488 0-4-1.392-4-2s1.512-2 4-2h20a8 8 0 1 0 0-16h-8a8 8 0 1 0-16 0v.36c-8.873 1.253-15.595 8.648-16 17.6.573 10.489 9.507 18.548 20 18.04h8c2.488 0 4 1.392 4 2s-1.512 2-4 2h-20a8 8 0 1 0 0 16h8a8 8 0 1 0 16 0v-.36c8.873-1.253 15.595-8.648 16-17.6-.573-10.489-9.507-18.548-20-18.04z"/></svg>